<?xml version="1.0" encoding="utf-8"?>
<!-- Generator: Adobe Illustrator 22.1.0, SVG Export Plug-In . SVG Version: 6.00 Build 0)  -->
<svg xmlns="http://www.w3.org/2000/svg" xmlns:xlink="http://www.w3.org/1999/xlink" version="1.1" id="Layer_1" x="0px" y="0px" viewBox="0 0 841.9 595.3" style="enable-background:new 0 0 841.9 595.3;" xml:space="preserve">
<style type="text/css">
	.st0{fill:#F06152;}
</style>

<g data-flat="387">
<polygon class="st0" points="771.1,411 754.8,411 754.8,409.9 726.7,409.9 726.7,411 716.6,411 716.6,411.8 716.6,427.3   716.6,429.5 771.1,429.5 771.1,427.3 772.2,427.3 772.2,411.8 771.1,411.8 "/>
<polygon class="st0" points="677.5,407.1 695.2,407.1 695.2,408.3 707.8,408.3 707.8,407.1 726.7,407.1 726.7,408.3 754.8,408.3   754.8,407.1 789.4,407.1 776.6,352.7 773.9,353.4 771.3,342.4 774,341.8 765.9,307.3 765.5,305.3 759.5,280.1 758.4,275.2   757.4,271.3 757.4,271.3 754.7,272 752.5,262.5 744.1,262.5 744.1,260.4 731.5,260.4 731.5,262.5 715.5,262.5 715.5,272   715.5,280.1 688.8,280.1 688.8,305.3 661.3,305.3 661.3,310.3 635.4,310.3 635.4,341.8 635.4,342.4 635.4,353.4 635.4,407.1   635.4,412.6 635.4,425.2 635.4,426.7 635.4,429.2 636.1,429.2 650,429.2 650,429.5 662,429.5 662,429.2 662,426.7 677.5,426.7   677.5,425.2 678.7,425.2 678.7,412.6 677.5,412.6 "/>
<polygon class="st0" points="710.9,409.9 698.2,409.9 698.2,411 684.5,411 684.5,412.6 683.4,412.6 683.4,425.2 684.5,425.2   684.5,429.5 711.8,429.5 711.8,425.2 711.8,412.6 711.8,411 710.9,411 "/>
</g>

<g data-flat="381">
<polygon class="st0" points="253.9,191 251.1,191 251.1,188.2 241.7,188.2 241.7,185.7 227.3,185.7 227.3,185.4 215.8,185.4   215.8,185.7 202.1,185.7 202.1,185.4 177.9,185.4 177.9,185.7 169,185.7 169,196.6 166.2,196.6 166.2,259.8 169,259.8 169,277.3   177.9,277.3 202.1,277.3 215.8,277.3 227.3,277.3 241.7,277.3 251.1,277.3 253.9,277.3 253.9,259.8 255.3,259.8 255.3,191 "/>
<polygon class="st0" points="241.7,167.1 240.5,167.1 240.5,165.7 163.4,165.7 163.4,167.1 163.4,182.6 241.7,182.6 "/>
</g>

<g data-flat="382">
<polygon class="st0" points="345.1,191 342.3,191 342.3,188.2 321.2,188.2 321.2,187 308.6,187 308.6,188.2 297.4,188.2 297.4,187   276.3,187 276.3,188.2 262.3,188.2 262.3,191 259.5,191 258.1,191 258.1,259.8 259.5,259.8 259.5,277.3 262.3,277.3 276.3,277.3   297.4,277.3 308.6,277.3 321.2,277.3 342.3,277.3 345.1,277.3 345.1,259.8 346.5,259.8 346.5,191 "/>
<polygon class="st0" points="272.8,184.3 276.3,184.3 276.3,185.4 297.4,185.4 297.4,184.3 308.6,184.3 308.6,185.4 321.2,185.4   321.2,184.3 328.2,184.3 328.2,183.4 328.2,168 328.2,165.7 272.8,165.7 272.8,168 271.7,168 271.7,183.4 272.8,183.4 "/>
</g>

<g data-flat="383">
<polygon class="st0" points="436.3,191 432.1,191 432.1,188.2 419.4,188.2 419.4,187 398.4,187 398.4,188.2 387.1,188.2 387.1,187   374.5,187 374.5,188.2 353.5,188.2 353.5,191 350.7,191 349.3,191 349.3,259.8 350.7,259.8 350.7,277.3 353.5,277.3 374.5,277.3   387.1,277.3 398.4,277.3 419.4,277.3 432.1,277.3 436.3,277.3 436.3,259.8 437.7,259.8 437.7,191 "/>
<polygon class="st0" points="374.5,185.4 387.1,185.4 387.1,184.3 398.4,184.3 398.4,185.4 419.4,185.4 419.4,184.3 422.9,184.3   422.9,183.4 424.1,183.4 424.1,168 422.9,168 422.9,165.7 367.5,165.7 367.5,168 367.5,183.4 367.5,184.3 374.5,184.3 "/>
</g>

<g data-flat="384">
<polygon class="st0" points="527.5,191 524.7,191 524.7,188.2 503.6,188.2 503.6,187 491,187 491,188.2 479.8,188.2 479.8,187   458.7,187 458.7,188.2 446.1,188.2 446.1,191 441.9,191 440.5,191 440.5,259.8 441.9,259.8 441.9,277.3 446.1,277.3 458.7,277.3   479.8,277.3 491,277.3 503.6,277.3 524.7,277.3 527.5,277.3 527.5,259.8 528.9,259.8 528.9,191 "/>
<polygon class="st0" points="455.2,184.3 458.7,184.3 458.7,185.4 479.8,185.4 479.8,184.3 491,184.3 491,185.4 503.6,185.4   503.6,184.3 510.6,184.3 510.6,183.4 510.6,168 510.6,165.7 455.2,165.7 455.2,168 454.1,168 454.1,183.4 455.2,183.4 "/>
</g>

<g data-flat="385">
<polygon class="st0" points="618.7,191 615.9,191 615.9,188.2 601.8,188.2 601.8,187 580.8,187 580.8,188.2 569.6,188.2 569.6,187   556.9,187 556.9,188.2 535.9,188.2 535.9,191 533.1,191 531.7,191 531.7,259.8 533.1,259.8 533.1,277.3 535.9,277.3 556.9,277.3   569.6,277.3 580.8,277.3 601.8,277.3 615.9,277.3 618.7,277.3 618.7,259.8 620.1,259.8 620.1,191 "/>
<polygon class="st0" points="556.9,185.4 569.6,185.4 569.6,184.3 580.8,184.3 580.8,185.4 601.8,185.4 601.8,184.3 605.3,184.3   605.3,183.4 606.5,183.4 606.5,168 605.3,168 605.3,165.7 549.9,165.7 549.9,168 549.9,183.4 549.9,184.3 556.9,184.3 "/>
</g>

<g data-flat="386">
<polygon class="st0" points="709.9,185.7 700.5,185.7 700.5,185.4 689,185.4 689,185.7 662.6,185.7 662.6,185.4 651.1,185.4   651.1,185.7 636.5,185.7 636.5,188.2 627.1,188.2 627.1,191 624.3,191 622.9,191 622.9,259.8 624.3,259.8 624.3,277.3 627.1,277.3   636.5,277.3 651.1,277.3 662.6,277.3 689,277.3 700.5,277.3 709.9,277.3 709.9,259.8 712.7,259.8 712.7,196.6 709.9,196.6 "/>
<polygon class="st0" points="637.6,165.7 637.6,167.1 636.5,167.1 636.5,182.6 715.5,182.6 715.5,167.1 715.5,165.7 "/>
</g>

<g data-flat="388">
<polygon class="st0" points="508.7,311.7 491.3,311.7 491.3,305.3 487.7,305.3 481.2,305.3 472.1,305.3 466.5,305.3 466.5,310.3   460.7,310.3 452.4,310.3 444.7,310.3 441.9,310.3 439.1,310.3 439.1,341.1 441.9,341.1 441.9,355.2 439.1,355.2 439.1,423.9   441.9,423.9 444.7,423.9 444.7,426.7 452.4,426.7 452.4,429.2 460.7,429.2 460.7,429.5 466.5,429.5 472.1,429.5 472.1,426.7   481.2,426.7 481.2,407.1 487.7,407.1 487.7,408.3 491.3,408.3 508.7,408.3 508.7,407.1 527.5,407.1 527.5,311.7 "/>
<polygon class="st0" points="511.3,411 508.7,411 508.7,409.9 487.7,409.9 487.7,411 485.1,411 485.1,411.8 485.1,427.3   485.1,429.5 511.3,429.5 511.3,427.3 512.4,427.3 512.4,411.8 511.3,411.8 "/>
</g>

<g data-flat="389">
<polygon class="st0" points="432.6,310.3 411.5,310.3 402.2,310.3 402.2,305.3 390,305.3 380.9,305.3 375.3,305.3 375.3,310.3   369.5,310.3 361.2,310.3 353.5,310.3 350.7,310.3 347.9,310.3 347.9,341.1 350.7,341.1 350.7,355.2 347.9,355.2 347.9,423.9   350.7,423.9 353.5,423.9 353.5,426.7 361.2,426.7 361.2,429.2 369.5,429.2 369.5,429.5 375.3,429.5 380.9,429.5 380.9,426.7   390,426.7 390,407.1 402.2,407.1 411.5,407.1 411.5,408.3 432.6,408.3 432.6,407.1 436.3,407.1 436.3,310.3 "/>
<polygon class="st0" points="432.6,409.9 411.5,409.9 411.5,411 408.9,411 408.9,411.8 407.8,411.8 407.8,422.8 407.8,427.3   408.9,427.3 408.9,429.5 432.3,429.5 432.3,427.3 432.3,422.8 435.1,422.8 435.1,411.8 435.1,411 432.6,411 "/>
</g>

<g data-flat="390">
<polygon class="st0" points="335.4,305.3 314.3,305.3 289.6,305.3 289.6,407.1 314.3,407.1 314.3,408.3 335.4,408.3 335.4,407.1   345.1,407.1 345.1,305.3 "/>
<polygon class="st0" points="335.4,409.9 314.3,409.9 314.3,411 305.8,411 305.8,411.8 304.6,411.8 304.6,422.8 304.6,427.3   305.8,427.3 305.8,429.5 341.1,429.5 341.1,427.3 341.1,422.8 343.9,422.8 343.9,411.8 343.9,411 335.4,411 "/>
</g>

<g data-flat="391">
<polygon class="st0" points="185.8,310.3 185.8,305.3 163.4,305.3 163.4,299.4 163.4,298.2 163.4,288 163.4,262.5 134.1,262.5   133.6,263.6 129.7,272.3 127.1,271.1 127.1,271.3 126.6,272.3 122.8,280.5 122.4,281.5 120.1,280.5 116.7,288 116.4,287.9   116.3,288 111.6,298.2 114.2,299.4 94.3,342.7 96.8,343.9 92.6,353.1 92.1,354.1 89.9,353.1 86.2,361.2 86.2,363.6 85.9,363.6   85.9,404.4 86.2,404.4 86.2,405.7 107.1,405.7 107.1,418.3 107.1,426.7 163.4,426.7 163.4,418.3 169,418.3 169,426.7 179.1,426.7   179.1,428.8 191.8,428.8 191.8,426.7 211.8,426.7 211.8,418.3 211.8,405.7 211.8,404.4 211.8,363.6 211.8,361.2 211.8,354.1   211.8,353.1 211.8,343.9 211.8,342.7 211.8,310.3 "/>
<polygon class="st0" points="85.7,352 52.4,352 52.4,360.3 52.4,362.2 52.4,405.7 52.4,410.4 52.4,417 57.1,417 62.2,419.3   57.5,429.5 81.9,429.5 81.9,425.9 83,425.9 83,419.3 83,417 83,410.4 81.9,410.4 81.9,405.7 83,405.7 83,362.2 81.9,362.2   81.9,360.3 "/>
</g>


</svg>
