<?xml version="1.0" encoding="utf-8"?>
<!-- Generator: Adobe Illustrator 22.1.0, SVG Export Plug-In . SVG Version: 6.00 Build 0)  -->
<svg xmlns="http://www.w3.org/2000/svg" xmlns:xlink="http://www.w3.org/1999/xlink" version="1.1" id="Layer_1" x="0px" y="0px" viewBox="0 0 841.9 595.3" style="enable-background:new 0 0 841.9 595.3;" xml:space="preserve">
<style type="text/css">
	.st0{fill:#F06152;}
</style>
<g data-flat="272">
<polygon class="st0" points="346.5,189.6 346.5,164.3 342.3,164.3 332.4,164.3 332.4,161.9 325.6,161.9 325.6,161.5 314.2,161.5   314.2,164.3 304.4,164.3 304.4,169.2 303.2,169.2 303.2,181.9 304.4,181.9 304.4,192.4 297.2,192.4 297.2,191.2 276.1,191.2   276.1,192.4 262.3,192.4 262.3,195.2 259.5,195.2 258.1,195.2 258.1,264 259.5,264 259.5,281.5 262.3,281.5 276.1,281.5   297.2,281.5 304.4,281.5 314.2,281.5 325.6,281.5 332.4,281.5 342.3,281.5 345.1,281.5 345.1,264 346.5,264 346.5,195.2   345.1,195.2 342.3,195.2 342.3,189.6 "/>
<polygon class="st0" points="272.8,188.5 276.1,188.5 276.1,189.6 297.2,189.6 297.2,188.5 300.5,188.5 300.5,184 300.5,181.9   301.6,181.9 301.6,169.3 300.5,169.3 300.5,168.5 300.5,161.5 272.8,161.5 272.8,168.5 271.7,168.5 271.7,169.3 271.7,181.9   271.7,184 272.8,184 "/>
</g>

<g data-flat="271">
<polygon class="st0" points="253.9,195.2 251.1,195.2 251.1,192.4 237.2,192.4 237.2,191.2 216.2,191.2 216.2,192.4 209,192.4   209,181.9 210.2,181.9 210.2,169.2 209,169.2 209,164.3 200.5,164.3 200.5,161.9 193.7,161.9 193.7,161.5 182.3,161.5 182.3,164.3   169,164.3 166.2,164.3 166.2,189.6 169,189.6 169,200.8 166.2,200.8 166.2,264 169,264 169,278 169,281.5 182.3,281.5 193.7,281.5   200.5,281.5 209,281.5 216.2,281.5 237.2,281.5 251.1,281.5 253.9,281.5 253.9,264 255.3,264 255.3,195.2 "/>
<polygon class="st0" points="212.9,184 212.9,188.5 214.8,188.5 216.2,188.5 216.2,189.6 237.2,189.6 237.2,188.5 238.6,188.5   240.5,188.5 240.5,184 241.7,184 241.7,181.9 241.7,169.2 241.7,168.5 240.5,168.5 240.5,161.5 212.9,161.5 212.9,168.5   212.9,169.2 211.8,169.2 211.8,181.9 212.9,181.9 "/>
</g>

<g data-flat="274">
<polygon class="st0" points="528.9,189.6 528.9,164.3 524.7,164.3 514.9,164.3 514.9,161.9 508,161.9 508,161.5 496.6,161.5   496.6,164.3 486.8,164.3 486.8,169.2 485.6,169.2 485.6,181.9 486.8,181.9 486.8,192.4 479.6,192.4 479.6,191.2 458.5,191.2   458.5,192.4 444.7,192.4 444.7,195.2 441.9,195.2 440.5,195.2 440.5,264 441.9,264 441.9,281.5 444.7,281.5 458.5,281.5   479.6,281.5 486.8,281.5 496.6,281.5 508,281.5 514.9,281.5 524.7,281.5 527.5,281.5 527.5,264 528.9,264 528.9,195.2 527.5,195.2   524.7,195.2 524.7,189.6 "/>
<polygon class="st0" points="455.2,188.5 458.5,188.5 458.5,189.6 479.6,189.6 479.6,188.5 482.9,188.5 482.9,184 482.9,181.9   484,181.9 484,169.3 482.9,169.3 482.9,168.5 482.9,161.5 455.2,161.5 455.2,168.5 454.1,168.5 454.1,169.3 454.1,181.9 454.1,184   455.2,184 "/>
</g>

<g data-flat="273">
<polygon class="st0" points="436.3,195.2 433.5,195.2 433.5,192.4 419.6,192.4 419.6,191.2 398.6,191.2 398.6,192.4 391.4,192.4   391.4,187.1 391.4,181.9 392.6,181.9 392.6,169.2 391.4,169.2 391.4,164.3 383,164.3 383,161.9 376.1,161.9 376.1,161.5   364.7,161.5 364.7,164.3 353.5,164.3 349.3,164.3 349.3,189.6 353.5,189.6 353.5,195.2 350.7,195.2 349.3,195.2 349.3,264   350.7,264 350.7,281.5 353.5,281.5 364.7,281.5 376.1,281.5 383,281.5 391.4,281.5 398.6,281.5 419.6,281.5 433.5,281.5   436.3,281.5 436.3,264 437.7,264 437.7,195.2 "/>
<polygon class="st0" points="395.3,184 395.3,188.5 398.6,188.5 398.6,189.6 419.6,189.6 419.6,188.5 422.9,188.5 422.9,184   424.1,184 424.1,181.9 424.1,169.2 424.1,168.5 422.9,168.5 422.9,161.5 395.3,161.5 395.3,168.5 395.3,169.2 394.2,169.2   394.2,181.9 395.3,181.9 "/>
</g>

<g data-flat="275">

<polygon class="st0" points="618.7,195.2 615.9,195.2 615.9,192.4 602.1,192.4 602.1,191.2 581.1,191.2 581.1,192.4 573.8,192.4   573.8,181.9 575,181.9 575,169.2 573.8,169.2 573.8,164.3 564,164.3 564,161.5 552.6,161.5 552.6,161.9 545.7,161.9 545.7,164.3   535.9,164.3 531.7,164.3 531.7,189.6 535.9,189.6 535.9,195.2 533.1,195.2 531.7,195.2 531.7,264 533.1,264 533.1,281.5   535.9,281.5 545.7,281.5 552.6,281.5 564,281.5 573.8,281.5 581.1,281.5 602.1,281.5 615.9,281.5 618.7,281.5 618.7,264 620.1,264   620.1,195.2 "/>
<polygon class="st0" points="577.7,184 577.7,188.5 581.1,188.5 581.1,189.6 602.1,189.6 602.1,188.5 605.3,188.5 605.3,184   606.5,184 606.5,181.9 606.5,169.2 606.5,168.5 605.3,168.5 605.3,161.5 577.7,161.5 577.7,168.5 577.7,169.2 576.6,169.2   576.6,181.9 577.7,181.9 "/>
</g>

<g data-flat="276">
<polygon class="st0" points="712.7,189.6 712.7,164.3 709.9,164.3 695.9,164.3 695.9,161.5 684.5,161.5 684.5,161.9 677.6,161.9   677.6,164.3 669.2,164.3 669.2,192.4 662,192.4 662,191.2 640.9,191.2 640.9,192.4 627.1,192.4 627.1,195.2 624.3,195.2   622.9,195.2 622.9,264 624.3,264 624.3,281.5 627.1,281.5 640.9,281.5 662,281.5 669.2,281.5 677.6,281.5 684.5,281.5 695.9,281.5   709.9,281.5 709.9,278 709.9,264 712.7,264 712.7,200.8 709.9,200.8 709.9,189.6 "/>
<polygon class="st0" points="637.6,188.5 640.9,188.5 640.9,189.6 662,189.6 662,188.5 665.3,188.5 665.3,184 665.3,181.9   666.4,181.9 666.4,169.3 665.3,169.3 665.3,168.5 665.3,161.5 637.6,161.5 637.6,168.5 636.5,168.5 636.5,169.3 636.5,181.9   636.5,184 637.6,184 "/>
</g>

<g data-flat="278">
<polygon class="st0" points="510.6,315.9 498.3,315.9 491.3,315.9 491.3,309.5 489.6,309.5 481.2,309.5 472.1,309.5 466.5,309.5   466.5,314.5 460.7,314.5 452.4,314.5 444.7,314.5 441.9,314.5 439.1,314.5 439.1,345.3 441.9,345.3 441.9,359.4 439.1,359.4   439.1,428.1 441.9,428.1 444.7,428.1 444.7,430.9 452.4,430.9 452.4,433.4 460.7,433.4 460.7,433.7 466.5,433.7 472.1,433.7   472.1,430.9 481.2,430.9 481.2,411.3 489.6,411.3 489.6,412.5 491.3,412.5 498.3,412.5 510.6,412.5 510.6,411.3 527.5,411.3   527.5,315.9 "/>
<polygon class="st0" points="511.3,415.2 510.6,415.2 510.6,414.1 489.6,414.1 489.6,415.2 485.1,415.2 485.1,416.2 485.1,431.6   485.1,433.7 511.3,433.7 511.3,433.7 511.3,431.6 512.5,431.6 512.5,416.2 511.3,416.2 "/>
</g>

<g data-flat="277">
<polygon class="st0" points="776.6,356.9 773.9,357.6 771.3,346.6 774.1,346.1 773.9,345.3 772.9,341 757.4,275.5 754.8,276.1   754.7,276.2 752.5,266.8 744.1,266.8 744.1,264.6 731.5,264.6 731.5,266.8 726.7,266.8 715.5,266.8 715.5,284.3 707.8,284.3   695.2,284.3 688.8,284.3 688.8,309.5 677.5,309.5 662,309.5 661.3,309.5 661.3,314.5 650,314.5 635.4,314.5 635.4,433.4 650,433.4   650,433.7 661.3,433.7 662,433.7 662,430.9 677.5,430.9 677.5,429.1 678.7,429.1 678.7,416.5 677.5,416.5 677.5,411.3 688.8,411.3   695.2,411.3 695.2,412.5 707.8,412.5 707.8,411.3 715.5,411.3 726.7,411.3 726.7,412.5 731.5,412.5 744.1,412.5 752.5,412.5   754.7,412.5 754.8,412.5 754.8,411.3 757.4,411.3 771.3,411.3 773.9,411.3 776.6,411.3 789.4,411.3 "/>
<polygon class="st0" points="707.8,414.1 695.2,414.1 695.2,415.2 681.4,415.2 681.4,416.5 680.3,416.5 680.3,429.1 681.4,429.1   681.4,433.7 708.8,433.7 708.8,429.1 708.8,416.5 708.8,415.2 707.8,415.2 "/>
<polygon class="st0" points="771.1,415.2 754.8,415.2 754.8,414.1 726.7,414.1 726.7,415.2 716.6,415.2 716.6,416.2 716.6,431.6   716.6,433.7 771.1,433.7 771.1,431.6 772.2,431.6 772.2,416.2 771.1,416.2 "/>
</g>

<g data-flat="279">
<polygon class="st0" points="430.7,314.5 409.6,314.5 402.3,314.5 402.3,309.5 390,309.5 380.9,309.5 375.3,309.5 375.3,314.5   369.5,314.5 361.2,314.5 353.5,314.5 350.7,314.5 347.9,314.5 347.9,345.3 350.7,345.3 350.7,359.4 347.9,359.4 347.9,428.1   350.7,428.1 353.5,428.1 353.5,430.9 361.2,430.9 361.2,433.4 369.5,433.4 369.5,433.7 375.3,433.7 380.9,433.7 380.9,430.9   390,430.9 390,411.3 402.3,411.3 409.6,411.3 409.6,412.5 430.7,412.5 430.7,411.3 436.3,411.3 436.3,314.5 "/>
<polygon class="st0" points="430.7,414.1 409.6,414.1 409.6,415.2 408.9,415.2 408.9,416.2 407.8,416.2 407.8,427 407.8,431.6   408.9,431.6 408.9,433.7 432.3,433.7 432.3,433.7 432.3,431.6 432.3,427 435.1,427 435.1,416.2 435.1,415.2 430.7,415.2 "/>

</g>

<g data-flat="280">
<polygon class="st0" points="332.4,309.5 311.4,309.5 289.6,309.5 289.6,411.3 311.4,411.3 311.4,412.5 332.4,412.5 332.4,411.3   345.1,411.3 345.1,309.5 "/>
<polygon class="st0" points="332.4,414.1 311.4,414.1 311.4,415.2 305.8,415.2 305.8,416.2 304.7,416.2 304.7,427 304.7,431.6   305.8,431.6 305.8,433.7 341.1,433.7 341.1,433.7 341.1,431.6 341.1,427 343.9,427 343.9,416.2 343.9,415.2 332.4,415.2 "/>
</g>

<g data-flat="281">

<polygon class="st0" points="191.1,314.5 185.8,314.5 185.8,309.5 178.5,309.5 169,309.5 163.4,309.5 163.4,307.4 163.4,307.4   163.4,266.8 134.1,266.8 129.7,276.5 127.1,275.3 122.4,285.7 120.1,284.7 116.7,292.2 116.4,292.1 111.6,302.4 111.6,302.4   114.2,303.6 107.1,319 103.3,327.3 94.3,346.9 96.8,348.1 92.1,358.3 89.9,357.3 86.2,365.4 86.2,367.8 85.9,367.8 85.9,398.8   85.9,408.5 86.2,408.5 86.2,409.9 89.9,409.9 92.1,409.9 96.8,409.9 107.1,409.9 107.1,430.9 114.2,430.9 116.4,430.9 116.7,430.9   120.1,430.9 122.4,430.9 127.1,430.9 129.7,430.9 134.1,430.9 163.4,430.9 163.4,422.5 169,422.5 169,430.9 178.5,430.9 178.5,433   185.8,433 191.1,433 191.1,430.9 211.8,430.9 211.8,314.5 "/>
<polygon class="st0" points="85.7,356.2 52.4,356.2 52.4,364.5 52.4,366.4 52.4,409.9 52.4,414.1 52.4,421.2 57.1,421.2 62.2,423.5   57.5,433.7 81.9,433.7 81.9,429.5 83,429.5 83,423.5 83,421.2 83,414.1 81.9,414.1 81.9,409.9 83,409.9 83,366.4 81.9,366.4   81.9,364.5 "/>
</g>







</svg>