<svg xmlns="http://www.w3.org/2000/svg" viewBox="0 0 60.72 60.75"><defs><style>.illistration-render-1{fill:#443a5b;}.illistration-render-2,.illistration-render-5{fill:none;stroke:#443a5b;stroke-linecap:round;stroke-linejoin:round;}.illistration-render-2{stroke-width:1.5px;}.illistration-render-3{fill:#ebb067;}.illistration-render-4{fill:#e27c52;}.illistration-render-5{stroke-width:3px;}.illistration-render-6{fill:#e7a2aa;}</style></defs><title>Render_Illustration1</title><g id="რენდერის_ძება" data-name="რენდერის ძება"><polygon class="illistration-render-1" points="25.09 35.43 25.09 53.69 6.83 41.52 6.83 23.26 25.09 35.43"/><line class="illistration-render-2" x1="25.09" y1="11.09" x2="25.09" y2="0.75"/><polygon class="illistration-render-3" points="25.09 35.43 25.09 53.69 43.35 41.52 43.35 23.26 25.09 35.43"/><polygon class="illistration-render-4" points="6.83 23.26 25.09 35.43 43.35 23.26 25.09 11.09 6.83 23.26"/><line class="illistration-render-2" x1="10.48" y1="38.21" x2="0.75" y2="47.94"/><line class="illistration-render-5" x1="53.37" y1="52.89" x2="59.22" y2="59.25"/><circle class="illistration-render-6" cx="46.3" cy="46.11" r="10.68"/><circle class="illistration-render-5" cx="46.3" cy="46.11" r="10.68"/><path class="illistration-render-5" d="M41,46.11a5.27,5.27,0,0,1,5.28-5.28"/><polyline class="illistration-render-2" points="8.39 18.22 3.83 21.26 3.83 26.97"/><polyline class="illistration-render-2" points="42.06 18.22 46.63 21.26 46.63 26.97"/></g></svg>