<svg xmlns="http://www.w3.org/2000/svg" viewBox="0 0 141.09 17.92"><defs><style>.pattern-lines-1{fill:#f26529;}</style></defs><title>hjfudfdfsd</title><g id="Layer_2" data-name="Layer 2"><g id="_ÎÓÈ_1" data-name="—ÎÓÈ_1"><path class="pattern-lines-1" d="M22.2,0,2.37,17.92H0L19.86,0S22.18,0,22.2,0Z"/><path class="pattern-lines-1" d="M29.09,0,9.26,17.92H6.88L26.75,0S29.06,0,29.09,0Z"/><path class="pattern-lines-1" d="M36.5,0,16.67,17.92H14.3L34.16,0S36.48,0,36.5,0Z"/><path class="pattern-lines-1" d="M43.39,0,23.56,17.92H21.18L41.05,0S43.36,0,43.39,0Z"/><path class="pattern-lines-1" d="M50.2,0,30.37,17.92H28L47.86,0S50.18,0,50.2,0Z"/><path class="pattern-lines-1" d="M57.09,0,37.26,17.92H34.88L54.75,0S57.06,0,57.09,0Z"/><path class="pattern-lines-1" d="M64.5,0,44.67,17.92H42.3L62.16,0S64.48,0,64.5,0Z"/><path class="pattern-lines-1" d="M71.39,0,51.56,17.92H49.18L69.05,0S71.36,0,71.39,0Z"/><path class="pattern-lines-1" d="M78.2,0,58.37,17.92H56L75.86,0S78.18,0,78.2,0Z"/><path class="pattern-lines-1" d="M85.09,0,65.26,17.92H62.88L82.75,0S85.06,0,85.09,0Z"/><path class="pattern-lines-1" d="M92.5,0,72.67,17.92H70.3L90.16,0S92.48,0,92.5,0Z"/><path class="pattern-lines-1" d="M99.39,0,79.56,17.92H77.18L97.05,0S99.36,0,99.39,0Z"/><path class="pattern-lines-1" d="M106.2,0,86.37,17.92H84L103.86,0S106.18,0,106.2,0Z"/><path class="pattern-lines-1" d="M113.09,0,93.26,17.92H90.88L110.75,0S113.06,0,113.09,0Z"/><path class="pattern-lines-1" d="M120.5,0,100.67,17.92H98.3L118.16,0S120.48,0,120.5,0Z"/><path class="pattern-lines-1" d="M127.39,0,107.56,17.92h-2.38L125.05,0S127.36,0,127.39,0Z"/><path class="pattern-lines-1" d="M134.2,0,114.37,17.92H112L131.86,0S134.18,0,134.2,0Z"/><path class="pattern-lines-1" d="M141.09,0,121.26,17.92h-2.38L138.75,0S141.06,0,141.09,0Z"/></g></g></svg>