<?xml version="1.0" encoding="utf-8"?>
<!-- Generator: Adobe Illustrator 22.1.0, SVG Export Plug-In . SVG Version: 6.00 Build 0)  -->
<svg version="1.1" id="Layer_1" xmlns="http://www.w3.org/2000/svg" xmlns:xlink="http://www.w3.org/1999/xlink" x="0px" y="0px"
	 viewBox="0 0 960 607" style="enable-background:new 0 0 960 607;" xml:space="preserve">
<style type="text/css">
	.st0{opacity:0.45;fill:#E28D39;}
</style>
<image style="overflow:visible;" width="960" height="607" xlink:href="">
</image>
<polygon class="st0" points="156.5,122.1 173.5,102.4 193.5,103.4 241.5,90.8 267.3,92 281.3,80.5 348,85.9 352.7,83.3 366.7,83.9 
	366.7,88.6 483.7,101.3 488.7,97.9 502.3,98.3 502.3,102.9 546.3,107.6 552.3,105.3 572.3,106.6 572.3,110.9 661,120.3 668,117.6 
	686.7,119.6 686.7,122.1 686.7,123.9 721.7,126.9 729,124.3 739.7,124.9 739.7,129.6 772.8,131.8 772.8,133.3 809.8,137.3 
	809.8,140.5 795.8,145 795.5,166 810.8,166 810.8,173.3 280.7,126.9 258.7,142.9 240,141.6 213.7,147.3 173.3,149.9 162.3,159.3 
	162.3,128.9 156.5,128.9 "/>
<polygon class="st0" points="162.3,159.3 173.3,149.9 213.7,147.3 240,141.6 258.7,142.9 280.7,126.9 810.8,173.3 796,176.9 
	796.3,213.3 777,213.3 777,201.3 282.3,167.3 267,178.6 241,177.3 212.7,181.9 171.7,185.3 162.3,192.6 "/>
<polygon class="st0" points="796.3,213.3 777,213.3 777,201.3 282.3,167.3 267,178.6 241,177.3 212.7,181.9 171.7,185.3 
	162.3,192.6 162.3,225.6 171,218.9 212.3,216.6 239.7,213.3 267,213.3 282.3,204.3 777.7,231.6 777.7,239.9 796.3,239.9 "/>
<polygon class="st0" points="162.3,225.6 171,218.9 212.3,216.6 239.7,213.3 267,213.3 282.3,204.3 777.7,231.6 777.7,239.9 
	796.3,239.9 797.2,269.8 778,269.8 777.5,261.4 281.7,239.9 267.2,250.1 239.8,249.3 220.8,251.9 170.8,253.6 162.3,257.1 "/>
<polygon class="st0" points="162.3,257.1 170.8,253.6 212.3,252.3 239.8,249.3 267.2,250.1 281.7,239.9 777.5,261.4 778,269.8 
	797.2,269.8 797.2,298.3 777.6,298.6 777.2,292.3 281.8,278.3 267.2,285.8 239.8,284.9 212,286.8 170.8,287 161.2,289.8 "/>
<polygon class="st0" points="161.2,289.8 170.8,287 212,286.8 239.8,284.9 267.2,285.8 281.8,278.3 777.2,292.3 777.6,298.6 
	797.2,298.3 797.2,325.8 777.2,326.3 777,322.3 281.8,315.6 266,320.8 239.3,320.9 212.2,322.1 170.3,322.6 161.2,322.9 "/>
<polygon class="st0" points="161.2,322.9 170.3,322.6 212.2,322.1 239.3,320.9 266,320.8 281.8,315.6 777,322.3 777.2,326.3 
	797.2,325.8 797.2,355 776.8,355.1 776.6,352.8 281.9,354.3 266,356.8 239.3,356.9 211.8,357.2 170,355.8 161.2,356.1 "/>
<polygon class="st0" points="161.2,356.1 170,355.8 211.8,357.2 239.3,356.9 266,356.8 281.9,354.3 776.6,352.8 776.8,355.1 
	797.2,355 797.2,378.6 784.7,378.1 784.7,379.6 281,388.2 256.7,385.8 238.7,385.8 210,385.1 169.2,388.3 160.5,389.5 "/>
<polygon class="st0" points="160.5,389.5 169.2,388.3 210,385.1 256.7,385.8 256.7,392.9 279.5,396.8 448.8,393.8 500.2,393.7 
	500.3,392 515,392.2 515,393.6 564.9,393.5 564.9,390.9 577,390.9 577,393.3 622.8,392.9 643.1,392.1 680.1,391.9 683.1,391.9 
	683.1,389.2 692.1,389 692.1,390.9 733.9,390.2 737,390.9 737,388.1 746.9,388.2 746.9,390.2 753,389 791.9,389 791.9,387.2 
	800,387.1 800,416.8 753.5,418 700,420 676.3,420.8 606.5,421.9 599,424.3 583.9,424.3 558.6,425.3 520.9,425.3 493.6,428.2 
	415.8,428.8 287,433.3 262.5,428.8 238.5,429.3 208,427.3 169.5,428.8 153.9,420.9 153.9,414.9 158.8,414.9 "/>
<polygon class="st0" points="157.1,422.5 169.5,428.8 208,427.3 238.5,429.3 262.5,428.8 287,433.3 415.8,428.8 493.6,428.2 
	520.9,425.3 558.6,425.3 583.9,424.3 599,424.3 606.5,421.9 700,420 753.5,418 800,416.8 800,421.7 800,429.3 795.9,429.4 
	796,434.8 792,434.8 792,442.7 754.3,442.7 754.2,444.9 746.2,444.9 746.2,443.5 737.1,443.5 737.1,446 734.2,446 734.2,444.7 
	699.5,447 692,447 683.2,447 683.1,448.2 680.4,448.2 657.2,448.2 644.2,448.2 644.2,450.4 636,450.4 626,450.4 626,451.2 
	623.2,451.2 617.9,450 600.2,450 584,452.9 575.6,452.9 564.9,452.9 529.8,454.1 520.8,454.1 520.8,456 514.1,456 514,455 
	501.1,455 501.1,456.9 484,454.1 475,454.1 473,456.9 464.3,456.9 455.2,458.1 455,460.3 448.2,460.3 448.3,458.3 409.5,460.3 
	409.5,461.9 402.7,461.9 401,460.3 292.8,464.5 292.7,466 286.3,466 286.2,464.4 264.2,455.9 237.5,455.4 155.8,436.3 155.8,426.5 
	157.5,426.5 "/>
</svg>
