<?xml version="1.0" encoding="utf-8"?>
<!-- Generator: Adobe Illustrator 22.1.0, SVG Export Plug-In . SVG Version: 6.00 Build 0)  -->
<svg version="1.1" id="Layer_1" xmlns="http://www.w3.org/2000/svg" xmlns:xlink="http://www.w3.org/1999/xlink" x="0px" y="0px"
	 viewBox="0 0 841.9 595.3" style="enable-background:new 0 0 841.9 595.3;" xml:space="preserve">
<style type="text/css">
	.st0{fill:#F06152;}
</style>
<g data-flat="150">
	<polygon class="st0" points="342.9,335.6 342.9,311 340.7,311 338.4,311 321.1,311 321.1,307.1 319.6,307.1 310.5,307.1 
	309.4,307.1 298.2,307.1 298.2,311 291.5,311 274.8,311 268.1,311 268.1,388.1 274.8,388.1 274.8,389.1 291.5,389.1 291.5,388.1 
	298.2,388.1 309.4,388.1 309.4,403.8 310.5,403.8 310.5,406 319.6,406 319.6,403.8 321.1,403.8 338.4,403.8 338.4,401.5 
	340.7,401.5 342.9,401.5 342.9,346.8 340.7,346.8 340.7,335.6 "/>
	<polygon class="st0" points="294.3,391.3 291.5,391.3 291.5,390.4 274.8,390.4 274.8,391.3 269,391.3 269,391.5 269,400.6 
		275.7,400.6 275.7,403.8 275.7,406 294.3,406 294.3,403.8 295.2,403.8 295.2,400.6 295.2,391.5 294.3,391.5 "/>
</g>
<g data-flat="139">
	<polygon class="st0" points="195.5,216.1 193.2,216.1 193.2,213.8 183.2,213.8 183.2,212.9 166.4,212.9 166.4,213.8 158,213.8 
	158,212.9 141.3,212.9 141.3,213.8 131.8,213.8 131.8,216.1 127.3,216.1 125.9,216.1 125.9,270.8 127.3,270.8 127.3,284.8 
	131.8,284.8 141.3,284.8 158,284.8 166.4,284.8 183.2,284.8 193.2,284.8 195.5,284.8 195.5,270.8 196.6,270.8 196.6,252.9 
	196.6,216.1 "/>
	<polygon class="st0" points="141.3,211.6 158,211.6 158,210.7 166.4,210.7 166.4,211.6 183.2,211.6 183.2,210.7 183.7,210.7 
		183.7,206.6 184.6,206.6 184.6,194.3 183.7,194.3 183.7,191.5 183.7,189.3 131.8,189.3 131.8,191.5 125.1,191.5 125.1,194.3 
		125.1,206.6 125.1,210.7 141.3,210.7 "/>
</g>
<g data-flat="140">
	<polygon class="st0" points="268.1,216.1 265.8,216.1 265.8,213.8 254.7,213.8 254.7,212.9 237.9,212.9 237.9,213.8 232.3,213.8 
	232.3,205.5 233.3,205.5 233.3,195.4 232.3,195.4 232.3,191.5 224.5,191.5 224.5,189.5 221,189.5 220.1,189.5 220.1,189.3 
	211.1,189.3 211.1,191.5 210,191.5 202.1,191.5 198.8,191.5 198.8,211.6 202.1,211.6 202.1,216.1 199.9,216.1 198.8,216.1 
	198.8,217.3 198.8,270.8 199.9,270.8 199.9,284.8 202.1,284.8 210,284.8 211.1,284.8 220.1,284.8 221,284.8 224.5,284.8 
	232.3,284.8 237.9,284.8 254.7,284.8 265.8,284.8 268.1,284.8 268.1,270.8 269.2,270.8 269.2,216.1 "/>
	<polygon class="st0" points="235.4,206.6 235.4,210.7 237.9,210.7 237.9,211.6 254.7,211.6 254.7,210.7 257.4,210.7 257.4,206.6 
		258.3,206.6 258.3,205.5 258.3,195.4 258.3,194.3 257.4,194.3 257.4,189.3 235.4,189.3 235.4,194.3 235.4,195.4 234.5,195.4 
		234.5,205.5 235.4,205.5 "/>
</g>
<g data-flat="141">
	<polygon class="st0" points="341.8,211.6 341.8,191.5 338.4,191.5 329.5,191.5 329.5,189.5 325.1,189.5 325.1,189.3 316.1,189.3 
	316.1,191.5 308.3,191.5 308.3,195.4 307.3,195.4 307.3,205.5 308.3,205.5 308.3,213.8 307.2,213.8 302.7,213.8 302.7,212.9 
	285.9,212.9 285.9,213.8 274.8,213.8 274.8,216.1 272.5,216.1 271.4,216.1 271.4,270.8 272.5,270.8 272.5,284.8 274.8,284.8 
	285.9,284.8 302.7,284.8 307.2,284.8 308.3,284.8 316.1,284.8 325.1,284.8 329.5,284.8 338.4,284.8 340.7,284.8 340.7,271 
	340.7,270.8 341.8,270.8 341.8,216.1 340.7,216.1 338.4,216.1 338.4,211.6 "/>
	<polygon class="st0" points="283.1,210.7 285.9,210.7 285.9,211.6 302.7,211.6 302.7,210.7 305.2,210.7 305.2,206.6 305.2,205.5 
		306,205.5 306,195.4 305.2,195.4 305.2,194.3 305.2,189.3 283.1,189.3 283.1,194.3 282.3,194.3 282.3,195.4 282.3,205.5 
		282.3,206.6 283.1,206.6 "/>
</g>
<g data-flat="142">
	<polygon class="st0" points="413.3,216.1 411.1,216.1 411.1,213.8 399.9,213.8 399.9,212.9 383.1,212.9 383.1,213.8 378.7,213.8 
	377.6,213.8 377.6,205.5 378.5,205.5 378.5,195.4 377.6,195.4 377.6,191.5 369.7,191.5 369.7,189.5 365.4,189.5 365.4,189.3 
	356.3,189.3 356.3,189.5 356.3,191.5 347.4,191.5 344,191.5 344,211.6 347.4,211.6 347.4,216.1 345.2,216.1 344,216.1 344,270.8 
	345.2,270.8 345.2,284.8 347.4,284.8 356.3,284.8 365.4,284.8 369.7,284.8 377.6,284.8 378.7,284.8 383.1,284.8 399.9,284.8 
	411.1,284.8 413.3,284.8 413.3,270.8 414.4,270.8 414.4,216.1 "/>
	<polygon class="st0" points="380.7,206.6 380.7,210.7 383.1,210.7 383.1,211.6 399.9,211.6 399.9,210.7 402.7,210.7 402.7,206.6 
		403.6,206.6 403.6,205.5 403.6,195.4 403.6,194.3 402.7,194.3 402.7,189.3 380.7,189.3 380.7,194.3 380.7,195.4 379.8,195.4 
		379.8,205.5 380.7,205.5 "/>
</g>
<g data-flat="143">
	<polygon class="st0" points="487,211.6 487,191.5 483.7,191.5 474.7,191.5 474.7,189.5 470.4,189.5 470.4,189.3 461.3,189.3 
	461.3,191.5 453.5,191.5 453.5,195.4 452.6,195.4 452.6,205.5 453.5,205.5 453.5,213.8 447.9,213.8 447.9,212.9 431.2,212.9 
	431.2,213.8 420,213.8 420,216.1 417.8,216.1 416.6,216.1 416.6,270.8 417.8,270.8 417.8,284.8 420,284.8 431.2,284.8 447.9,284.8 
	453.5,284.8 461.3,284.8 470.4,284.8 474.7,284.8 483.7,284.8 485.9,284.8 485.9,270.8 487,270.8 487,216.1 485.9,216.1 
	483.7,216.1 483.7,211.6 "/>
	<polygon class="st0" points="428.4,210.7 431.2,210.7 431.2,211.6 447.9,211.6 447.9,210.7 450.4,210.7 450.4,206.6 450.4,205.5 
		451.3,205.5 451.3,195.4 450.4,195.4 450.4,194.3 450.4,189.3 428.4,189.3 428.4,194.3 427.5,194.3 427.5,195.4 427.5,205.5 
		427.5,206.6 428.4,206.6 "/>
</g>
<g data-flat="144">
	<polygon class="st0" points="583.1,191.5 583.1,189.5 578.8,189.5 578.8,189.3 574.7,189.3 569.7,189.3 569.7,191.5 547.4,191.5 
	547.4,189.5 543,189.5 543,189.3 534,189.3 534,191.5 526.1,191.5 526.1,195.4 525.2,195.4 525.2,205.5 526.1,205.5 526.1,213.8 
	520.5,213.8 520.5,212.9 503.8,212.9 503.8,213.8 492.6,213.8 492.6,216.1 490.4,216.1 489.3,216.1 489.3,270.8 490.4,270.8 
	490.4,284.8 492.6,284.8 503.8,284.8 520.5,284.8 526.1,284.8 534,284.8 543,284.8 547.4,284.8 569.7,284.8 574.7,284.8 
	574.7,280.9 578.8,280.9 583.1,280.9 596,280.9 596,191.5 "/>
	<polygon class="st0" points="502.1,210.7 503.8,210.7 503.8,211.6 520.5,211.6 520.5,210.7 523,210.7 523,206.6 523,205.5 
		523.9,205.5 523.9,195.4 523,195.4 523,194.3 523,189.3 502.1,189.3 502.1,194.3 501.2,194.3 501.2,195.4 501.2,205.5 501.2,206.6 
		502.1,206.6 "/>
</g>
<g data-flat="145">
	<polygon class="st0" points="699.3,216.1 699.3,211.6 699.1,211.6 692.2,211.6 692.2,211.9 685.7,211.9 685.7,211.6 676.5,211.6 
	676.5,211.9 662.2,211.9 662.2,211.6 653,211.6 652.2,211.6 647.6,211.6 647.6,213.8 637.9,213.8 637.9,216.1 628.9,216.1 
	628.9,211.9 626.3,211.9 626.3,211.6 619.4,211.6 619.3,211.6 618.4,211.6 609.3,211.6 609.3,211.9 598.2,211.9 598.2,280.9 
	609.3,280.9 618.4,280.9 619.3,280.9 619.4,280.9 619.4,284.8 626.3,284.8 628.9,284.8 637.9,284.8 647.6,284.8 652.2,284.8 
	653,284.8 662.2,284.8 676.5,284.8 685.7,284.8 692.2,284.8 699.1,284.8 699.3,284.8 703.8,284.8 703.8,270.8 706,270.8 706,216.1 
	703.8,216.1 "/>
	<rect x="599.1" y="189.3" class="st0" width="32.3" height="20.1"/>
	<polygon class="st0" points="701.6,191.5 701.6,189.3 647.4,189.3 647.4,191.5 647.4,194.3 646.5,194.3 646.5,206.6 647.4,206.6 
		647.4,209.4 706,209.4 706,206.6 706,194.3 706,191.5 "/>
</g>
<g data-flat="146">
	<polygon class="st0" points="761.3,346.2 758,337.9 759.6,337.2 760.1,337.1 759.6,336 755.5,325.6 745.4,300.5 747.5,299.7 
	745.4,294.5 743.3,289.3 741.2,290.1 737.2,279.9 735.1,280.8 732,273.1 708.3,273.1 708.3,287 703.8,287 683.8,287 674.6,287 
	669.9,287 658.8,287 658.8,304.9 669.9,304.9 669.9,405.7 674.6,405.7 674.6,406 683.8,406 683.8,405.7 703.8,405.7 703.8,397.1 
	708.3,397.1 708.3,403.8 732,403.8 735.1,403.8 737.2,403.8 741.2,403.8 743.3,403.8 745.4,403.8 748.6,403.8 748.6,387 755.5,387 
	758,387 761.3,387 763.4,387 765.2,387 765.2,385.9 765.2,379.1 765.2,378.2 765.2,371.3 765.2,370.4 765.2,361.2 765.2,360.3 
	765.2,353.5 765.2,349.9 763.4,345.4 "/>
	<polygon class="st0" points="757,321.1 758,323.5 757.1,323.8 762.1,336.2 763,335.9 768.4,349.3 768.4,352.4 767.5,352.4 
		767.5,387 768.4,387 768.4,390.3 767.5,390.3 767.5,396.1 767.5,397.7 767.5,402.6 768.4,402.6 768.4,406 785.3,406 782,397.7 
		786.1,396.1 789.4,396.1 789.4,390.3 789.4,387 789.4,352.4 789.4,349.3 789.4,336.2 789.4,335.9 789.4,323.8 789.4,323.5 
		789.4,321.1 "/>
</g>
<g data-flat="147">
	<polygon class="st0" points="654.6,311 638.2,311 638.2,307.1 637.9,307.1 631.2,307.1 628.9,307.1 622.8,307.1 617.2,307.1 
	617.2,311 612.7,311 596.5,311 596.5,325.9 596.5,339 596.5,369.7 596.5,403.8 612.7,403.8 612.7,405.5 617.2,405.5 622.8,405.5 
	622.8,403.8 628.9,403.8 628.9,401.5 631.2,401.5 631.2,388.1 637.9,388.1 637.9,389.1 638.2,389.1 654.6,389.1 654.6,388.1 
	667.7,388.1 667.7,311 "/>
	<polygon class="st0" points="654.9,391.3 654.6,391.3 654.6,390.4 637.9,390.4 637.9,391.3 634.3,391.3 634.3,391.5 634.3,400.6 
		638.7,400.6 638.7,403.8 638.7,406 654.9,406 654.9,403.8 655.7,403.8 655.7,400.6 655.7,391.5 654.9,391.5 "/>
</g>
<g data-flat="148">
	<polygon class="st0" points="554.9,311 544.8,311 537.9,311 537.9,307.1 525.8,307.1 520.5,307.1 503.8,307.1 481.6,307.1 
	481.6,313.3 472.7,313.3 455.9,313.3 441.7,313.3 441.7,388.1 455.9,388.1 455.9,389.1 472.7,389.1 472.7,388.1 481.6,388.1 
	503.8,388.1 503.8,389.1 520.5,389.1 520.5,388.1 525.8,388.1 525.8,403.8 537.9,403.8 544.8,403.8 544.8,405.5 554.9,405.5 
	554.9,403.8 560.2,403.8 560.2,339 560.2,311 "/>
	<polygon class="st0" points="520.5,390.4 503.8,390.4 503.8,391.3 472.7,391.3 472.7,390.4 455.9,390.4 455.9,391.3 454.6,391.3 
		454.6,391.5 453.7,391.5 453.7,401.5 453.7,403.8 454.6,403.8 454.6,406 483.7,406 483.7,403.8 483.7,401.5 492.6,401.5 492.6,406 
		522.7,406 522.7,401.5 522.7,391.5 522.7,391.3 520.5,391.3 "/>
</g>
<g data-flat="149">
	<polygon class="st0" points="369.7,307.1 353,307.1 345.2,307.1 345.2,388.1 353,388.1 353,389.1 369.7,389.1 369.7,388.1 
	389.3,388.1 389.3,307.1 "/>
	<polygon class="st0" points="376.5,391.3 369.7,391.3 369.7,390.4 353,390.4 353,391.3 346,391.3 346,391.5 346,400.6 348.3,400.6 
		348.3,403.8 348.3,406 376.5,406 376.5,403.8 377.4,403.8 377.4,400.6 377.4,391.5 376.5,391.5 "/>
</g>
<g data-flat="151">
	<polygon class="st0" points="258.1,307.1 241.4,307.1 221.7,307.1 221.7,388.1 241.4,388.1 241.4,389.1 258.1,389.1 258.1,388.1 
	265.8,388.1 265.8,307.1 "/>
	<polygon class="st0" points="258.1,390.4 241.4,390.4 241.4,391.3 234.5,391.3 234.5,391.5 233.6,391.5 233.6,403.8 234.5,403.8 
		234.5,406 264.9,406 264.9,403.8 264.9,391.5 264.9,391.3 258.1,391.3 "/>
</g>
<g data-flat="152">
	<polygon class="st0" points="65.3,269.9 72,269.9 72,270.8 88.7,270.8 88.7,269.9 97.1,269.9 97.1,270.8 113.9,270.8 113.9,269.9 
	121.1,269.9 121.1,269.4 121.1,259.4 121.1,256.9 65.3,256.9 65.3,259.4 64.4,259.4 64.4,269.4 65.3,269.4 "/>
	<polygon class="st0" points="163.6,334.5 163.6,307.1 155.2,307.1 147.3,307.1 142.9,307.1 130.2,307.1 129.5,307.1 122.8,307.1 
		122.8,273.1 120.6,273.1 113.9,273.1 113.9,272.1 112.9,272.1 103.7,272.1 97.1,272.1 97.1,273.1 88.7,273.1 88.7,272.1 87.1,272.1 
		82.6,272.1 72,272.1 72,273.1 65.8,273.1 54.7,273.1 54.7,282 52.4,282 52.4,335.6 54.7,335.6 54.7,346.8 52.4,346.8 52.4,388.1 
		54.7,388.1 65.8,388.1 65.8,389.1 65.8,391.3 53.3,391.3 53.3,397.1 54.7,397.1 54.7,406 83.9,406 83.9,397.1 83.9,391.3 
		82.6,391.3 82.6,389.1 82.6,388.1 87.1,388.1 87.1,405.7 88.7,405.7 97.1,405.7 103.7,405.7 103.7,406 112.9,406 112.9,405.7 
		113.9,405.7 120.6,405.7 120.6,401.5 122.8,401.5 129.5,401.5 129.5,405.7 130.2,405.7 142.9,405.7 147.3,405.7 147.3,406 
		155.2,406 156.4,406 156.4,405.7 163.6,405.7 163.6,387.1 163.6,384 163.6,381.9 163.6,368.6 163.6,343.4 156.4,343.4 155.2,343.4 
		155.2,334.5 "/>
</g>
</svg>
