<svg xmlns="http://www.w3.org/2000/svg" viewBox="0 0 21.5 19.5"><defs><style>.cls-1{fill:none;stroke-linecap:round;stroke-linejoin:round;stroke-width:1.5px;}</style></defs><title>Autorisation_Icon1</title><g id="ავტორიზაცია_ნომ" data-name="ავტორიზაცია ნომ"><path class="cls-1" d="M1.14,4.22,2.67,2.68a1.38,1.38,0,0,1,1.92,0L7,5.06a1.37,1.37,0,0,1,.2,1.66L6.44,7.94a1.36,1.36,0,0,0,.29,1.72c.54.46,1.08,1,1.61,1.5s1,1.07,1.5,1.61a1.36,1.36,0,0,0,1.72.29l1.22-.73a1.37,1.37,0,0,1,1.66.2l2.38,2.38a1.38,1.38,0,0,1,0,1.92l-1.54,1.53c-1,1-3.87-.06-6.94-2.49a29,29,0,0,1-2.49-2.22,29,29,0,0,1-2.22-2.49C1.2,8.09.11,5.25,1.14,4.22Z"/><polyline class="cls-1" points="10.75 4.08 14.08 7.42 20.75 0.75"/></g></svg>