<svg id="Layer_1" data-name="Layer 1" xmlns="http://www.w3.org/2000/svg" viewBox="0 0 512 512"><title>compass n-01</title><path d="M437,75C337-25,174.92-25,75,75S-25,337.08,75,437,337.08,537,437,437a256,256,0,0,0,0-362ZM415.81,415.78c-88.26,88.26-231.35,88.27-319.61,0s-88.27-231.35,0-319.61,231.35-88.27,319.61,0a226,226,0,0,1,0,319.61Z"/><path d="M295.77,233.15a46.28,46.28,0,0,0-17.15-17.07L256,144.69l-22.62,71.39a46.28,46.28,0,0,0-17.15,17.07l-71.3,22.6L216,278.27a46.15,46.15,0,0,0,17.52,17.58l22.49,71,22.49-71A46.1,46.1,0,0,0,296,278.27l71.05-22.52ZM256,271.77a15.85,15.85,0,1,1,15.85-15.85A15.85,15.85,0,0,1,256,271.77Z"/><path d="M247.22,92.83l20.32,24.3h14.82V63.66H264.79V88L244.47,63.66H229.65v53.47h17.57Z"/><path d="M250.54,406.41c0-1.84,1.68-3.37,7-3.37a33.07,33.07,0,0,1,14.9,4L277.86,394c-5.58-3.13-13-4.66-20.17-4.66-16.57,0-24.9,8.1-24.9,18,0,19.94,29.56,14.51,29.56,21.24,0,1.83-1.83,2.9-6.94,2.9a36.63,36.63,0,0,1-17.7-4.93l-5.81,13.14c5.35,3.28,14.37,5.5,23.3,5.5,16.58,0,24.9-8.25,24.9-18C280.1,407.47,250.54,412.82,250.54,406.41Z"/><path d="M107.72,258.36,98.4,227.58H81.82L72,258l-9.32-30.4H44.09L61.2,281.05H80.52l9.09-28.52,8.64,28.57h19.32l17.11-53.47H117.57Z"/><path d="M415,267.45v-7h22.61v-13H415v-6.27h25.75v-13.6H397.3v53.47h44.46v-13.6Z"/></svg>