<svg xmlns="http://www.w3.org/2000/svg" viewBox="0 0 21.5 21.5"><defs><style>.cls-1{fill:none;stroke:#fff;stroke-linecap:round;stroke-miterlimit:10;stroke-width:1.5px;}</style></defs><title>Block1</title><g id="ბლოკი"><path class="cls-1" d="M20.75,5.47v13.9a1.38,1.38,0,0,1-1.38,1.38H8.8a1.38,1.38,0,0,1-1.38-1.38V14.09H12.7a1.39,1.39,0,0,0,1.39-1.39V8.81A1.39,1.39,0,0,0,12.7,7.42H8.8A1.38,1.38,0,0,1,7.42,6V5.47A1.38,1.38,0,0,1,8.8,4.09H19.37A1.38,1.38,0,0,1,20.75,5.47Z"/><path class="cls-1" d="M14.09,8.81V12.7a1.39,1.39,0,0,1-1.39,1.39H2.14A1.39,1.39,0,0,1,.75,12.7V2.14A1.39,1.39,0,0,1,2.14.75H6A1.39,1.39,0,0,1,7.42,2.14V6A1.38,1.38,0,0,0,8.8,7.42h3.9A1.39,1.39,0,0,1,14.09,8.81Z"/></g></svg>