<svg xmlns="http://www.w3.org/2000/svg" viewBox="0 0 21.5 21.5"><defs><style>.children-1{fill:none;stroke:#fff;stroke-linecap:round;stroke-miterlimit:10;stroke-width:1.5px;}</style></defs><title>Children1</title><g id="შვილისთვის"><path class="children-1" d="M5.75,7.42h0a5,5,0,0,1,5,5V13a1.08,1.08,0,0,1-1.08,1.08H1.83A1.08,1.08,0,0,1,.75,13v-.59a5,5,0,0,1,5-5Z"/><circle class="children-1" cx="5.75" cy="4.08" r="3.33"/><path class="children-1" d="M15.75,14.08h0a5,5,0,0,1,5,5v.59a1.08,1.08,0,0,1-1.08,1.08H11.83a1.08,1.08,0,0,1-1.08-1.08v-.59A5,5,0,0,1,15.75,14.08Z"/><circle class="children-1" cx="15.75" cy="10.75" r="3.33"/></g></svg>