<svg xmlns="http://www.w3.org/2000/svg" viewBox="0 0 21.5 21.5"><defs><style>.completed-class-1{fill:none;stroke:#fff;stroke-linecap:round;stroke-miterlimit:10;stroke-width:1.5px;}.completed-class-2{fill:#fff;}</style></defs><title>Complited1</title><g id="დასრულებული"><path class="completed-class-1" d="M3,.75H7.79a1,1,0,0,1,1,1v19a0,0,0,0,1,0,0H2.08a0,0,0,0,1,0,0v-19a1,1,0,0,1,1-1Z"/><path class="completed-class-1" d="M19.42,20.75H12.75V8.38a1,1,0,0,1,1-1h4.75a1,1,0,0,1,1,1Z"/><line class="completed-class-1" x1="0.75" y1="20.75" x2="20.75" y2="20.75"/><circle class="completed-class-2" cx="5.42" cy="10.75" r="0.63"/><circle class="completed-class-2" cx="5.42" cy="5.75" r="0.63"/><circle class="completed-class-2" cx="16.08" cy="16.08" r="0.63"/><circle class="completed-class-2" cx="16.08" cy="11.08" r="0.63"/><circle class="completed-class-2" cx="5.42" cy="15.75" r="0.63"/></g></svg>