<svg xmlns="http://www.w3.org/2000/svg" viewBox="0 0 21.52 21.29"><defs><style>.cls-1{fill:none;stroke:#f2804f;stroke-linecap:round;stroke-miterlimit:10;stroke-width:1.5px;}</style></defs><title>Custom_Makeover1</title><g id="ქასთომ_რემონტი" data-name="ქასთომ რემონტი"><rect class="cls-1" x="3.93" y="2.16" width="9.17" height="4.86" rx="1.09" ry="1.09" transform="translate(2.93 -3.3) rotate(26.39)"/><path class="cls-1" d="M4.67,2l-1.1-.55a.62.62,0,0,0-.81.27l-1.95,4a.61.61,0,0,0,.27.8L5,8.42a.56.56,0,0,1,.25.74L4,11.63"/><rect class="cls-1" x="2.27" y="11.44" width="1.83" height="3.67" rx="0.88" ry="0.88" transform="translate(6.23 -0.03) rotate(26.39)"/><polygon class="cls-1" points="20.47 10.54 10.46 20.55 7.13 20.55 7.14 17.66 17.23 7.22 20.47 10.54"/><line class="cls-1" x1="15.57" y1="8.93" x2="18.78" y2="12.23"/><line class="cls-1" x1="8.73" y1="16.01" x2="11.88" y2="19.12"/></g></svg>