<svg xmlns="http://www.w3.org/2000/svg" viewBox="0 0 21.5 21.5"><defs><style>.cls-1{fill:none;stroke-linecap:round;stroke-miterlimit:10;stroke-width:1.5px;}</style></defs><title>Decor1</title><g id="დეკორი"><path class="cls-1" d="M4.08,20.75V7.45A6.71,6.71,0,0,1,10.79.75h5.89a.74.74,0,0,1,.74.73v2.6"/><path class="cls-1" d="M17.42,4.08h0a3.33,3.33,0,0,1,3.33,3.33V9a0,0,0,0,1,0,0H14.08a0,0,0,0,1,0,0V7.42A3.33,3.33,0,0,1,17.42,4.08Z"/><line class="cls-1" x1="0.75" y1="20.75" x2="10.75" y2="20.75"/><line class="cls-1" x1="17.42" y1="13.19" x2="17.42" y2="11.97"/><line class="cls-1" x1="20.43" y1="12.03" x2="19.57" y2="11.16"/><line class="cls-1" x1="14.51" y1="11.83" x2="15.37" y2="10.96"/></g></svg>