<svg xmlns="http://www.w3.org/2000/svg" viewBox="0 0 21.47 21.5"><defs><style>.favourite-class-1{fill:none;stroke-linecap:round;stroke-miterlimit:10;stroke-width:1.5px;}</style></defs><title>Favourite1</title><g id="ფავორიტებო"><path class="favourite-class-1" d="M19.67,20.63l-5.16-5.17a.63.63,0,0,0-.88,0L8.46,20.63a.62.62,0,0,1-1.06-.44V.69h6.66a6.67,6.67,0,0,1,6.67,6.68V20.19A.62.62,0,0,1,19.67,20.63Z"/><path class="favourite-class-1" d="M7.4.69h0a0,0,0,0,1,0,0v14.2a0,0,0,0,1,0,0h-6a.62.62,0,0,1-.62-.62V7.36A6.67,6.67,0,0,1,7.4.69Z"/></g></svg>