
<svg xmlns="http://www.w3.org/2000/svg" viewBox="0 0 66.93 69.17"><defs><style>.filter-illustraation-1{fill:#e27c52;}.filter-illustraation-2{fill:#ebb067;}.filter-illustraation-3{fill:#e7a2aa;}.filter-illustraation-4,.filter-illustraation-5{fill:none;stroke:#443a5b;stroke-linecap:round;stroke-linejoin:round;}.filter-illustraation-4{stroke-width:1.5px;}.filter-illustraation-5{stroke-width:3px;}</style></defs><title>Filter_Illustration1</title><g id="ფილტრით_ძებნა" data-name="ფილტრით ძებნა"><path class="filter-illustraation-1" d="M35.26,11.49v4.28a1.79,1.79,0,0,1-1.78,1.79H18.53V13.28a1.79,1.79,0,0,1,1.79-1.79H35.26m3-3H20.32a4.79,4.79,0,0,0-4.79,4.79v7.28H33.48a4.78,4.78,0,0,0,4.78-4.79V8.49Z"/><path class="filter-illustraation-2" d="M35.26,30v4.27A1.79,1.79,0,0,1,33.48,36H9.57V31.74A1.79,1.79,0,0,1,11.36,30h23.9m3-3H11.36a4.78,4.78,0,0,0-4.79,4.78V39H33.48a4.78,4.78,0,0,0,4.78-4.79V27Z"/><path class="filter-illustraation-3" d="M63.93,58.56a4.6,4.6,0,0,1-.27,1.58A4.76,4.76,0,0,1,62.52,62l0,0a4.83,4.83,0,0,1-3.43,1.42h-14l-.44,0a4.8,4.8,0,0,1-2.69-1.19A4.94,4.94,0,0,1,40.48,60a4.54,4.54,0,0,1-.18-.92c0-.15,0-.29,0-.44v-.06a5.36,5.36,0,0,1,0-.7,4.87,4.87,0,0,1,4.8-4.16H59.07A4.87,4.87,0,0,1,63.93,58.56Z"/><path class="filter-illustraation-4" d="M44.58,51.92H59.63"/><path class="filter-illustraation-4" d="M59.63,65.19H44.49c-.2,0-.39,0-.6,0"/><path class="filter-illustraation-1" d="M63.93,11.07v4.28a1.78,1.78,0,0,1-1.78,1.78H47.2V12.85A1.78,1.78,0,0,1,49,11.07h15m3-3H49a4.78,4.78,0,0,0-4.78,4.78v7.28H62.15a4.78,4.78,0,0,0,4.78-4.78V8.07Z"/><path class="filter-illustraation-1" d="M63.93,30v4.27A1.79,1.79,0,0,1,62.15,36H47.2V31.74A1.78,1.78,0,0,1,49,30h15m3-3H49a4.78,4.78,0,0,0-4.78,4.78V39H62.15a4.78,4.78,0,0,0,4.78-4.79V27Z"/><line class="filter-illustraation-4" x1="57.27" y1="58.56" x2="59.02" y2="58.56"/><circle class="filter-illustraation-3" cx="35.63" cy="28.95" r="11.82"/><circle class="filter-illustraation-5" cx="35.63" cy="28.95" r="11.82"/><path class="filter-illustraation-5" d="M30.84,24.16a6.78,6.78,0,0,1,9.58,0"/><line class="filter-illustraation-5" x1="43.99" y1="37.32" x2="52.35" y2="45.68"/></g></svg>