
<svg xmlns="http://www.w3.org/2000/svg" viewBox="0 0 77.88 69.17"><defs><style>.filter-icon-class-1{fill:none;stroke:#443a5b;stroke-linecap:round;stroke-linejoin:round;stroke-width:1.5px;}.filter-icon-class-2{fill:#e7a2aa;}.filter-icon-class-3{fill:#ebb067;}.filter-icon-class-4{fill:#e27c52;}</style></defs><title>Filter_Illustration1</title><g id="ფილტრით_ძებნა" data-name="ფილტრით ძებნა"><path class="filter-icon-class-1" d="M27.79,47.1a68.11,68.11,0,0,1-11.24-1.39l-.89-5.42-3.92,4.06a22.34,22.34,0,0,1-5.82-3l2.2-5.52L2.26,37.45c-3.32-5.66-.13-11.67-.13-11.67C16.16,31.16,23.74,39.34,27.79,47.1Z"/><path class="filter-icon-class-1" d="M27.79,47.1a39,39,0,0,1,4.43,21.32"/><path class="filter-icon-class-1" d="M33.55,47.1a32.09,32.09,0,0,0,5.37-.66l.42-2.59,1.87,1.94A10.72,10.72,0,0,0,44,44.38l-1.05-2.64,2.8.75a6.12,6.12,0,0,0,.06-5.57C39.1,39.49,35.48,43.4,33.55,47.1Z"/><path class="filter-icon-class-1" d="M31.43,57.29A18.64,18.64,0,0,1,33.55,47.1"/><path class="filter-icon-class-2" d="M54.55,7.61h13a0,0,0,0,1,0,0v4.64A4.79,4.79,0,0,1,62.75,17h-13a0,0,0,0,1,0,0V12.4A4.79,4.79,0,0,1,54.55,7.61Z"/><path class="filter-icon-class-2" d="M32.15,7.61h13a0,0,0,0,1,0,0v4.64A4.79,4.79,0,0,1,40.34,17h-13a0,0,0,0,1,0,0V12.4a4.79,4.79,0,0,1,4.79-4.79Z"/><path class="filter-icon-class-2" d="M54.55,22h13a0,0,0,0,1,0,0v4.64a4.79,4.79,0,0,1-4.79,4.79h-13a0,0,0,0,1,0,0V26.83A4.79,4.79,0,0,1,54.55,22Z"/><path class="filter-icon-class-3" d="M25.15,22h20a0,0,0,0,1,0,0v4.64a4.79,4.79,0,0,1-4.79,4.79h-20a0,0,0,0,1,0,0V26.83A4.79,4.79,0,0,1,25.15,22Z"/><rect class="filter-icon-class-4" x="56.64" y="37.65" width="13.75" height="5.65" rx="2.82" ry="2.82"/><path class="filter-icon-class-1" d="M61.26,68.42s1.83-8.61,12.28-21.32c11.11-13.51-7.15-17.32-7.15-17.32"/><line class="filter-icon-class-1" x1="66.51" y1="40.47" x2="67.53" y2="40.47"/><path class="filter-icon-class-1" d="M60.46,59.82h0a8.57,8.57,0,0,1-4.34,1.23"/><path class="filter-icon-class-1" d="M54,60.34a5.2,5.2,0,0,1-1.85-3.11,12.71,12.71,0,0,1,8.33,2.59,18.24,18.24,0,0,1,3.06,2.65"/><polyline class="filter-icon-class-1" points="53.97 60.34 55.73 59.42 56.11 61.05"/><circle class="filter-icon-class-3" cx="66.98" cy="7.06" r="7.06"/><path class="filter-icon-class-1" d="M63.15,7.06A3.82,3.82,0,0,1,67,3.23"/><line class="filter-icon-class-1" x1="71.97" y1="12.05" x2="76.96" y2="17.04"/></g></svg>