
<svg xmlns="http://www.w3.org/2000/svg" viewBox="0 0 66.88 64.87"><defs><style>.search-illustraation-1{fill:#443a5b;}.search-illustraation-2{fill:#ebb067;}.search-illustraation-3{fill:#e7a2aa;}.search-illustraation-4,.search-illustraation-5{fill:none;stroke:#443a5b;stroke-linecap:round;stroke-linejoin:round;}.search-illustraation-4{stroke-width:3px;}.search-illustraation-5{stroke-width:1.5px;}</style></defs><title>Room_Illustration1</title><g id="ავტორიზაცია_ნომ" data-name="ავტორიზაცია ნომ"><polygon class="search-illustraation-1" points="26.67 5.81 26.67 64.87 20.25 64.87 20.25 34.42 20.25 5.81 26.67 5.81"/><rect class="search-illustraation-2" x="26.67" y="5.81" width="26.91" height="59.06"/><circle class="search-illustraation-1" cx="32.44" cy="41.43" r="2.3"/><circle class="search-illustraation-3" cx="50.44" cy="41.14" r="10.39"/><circle class="search-illustraation-4" cx="50.44" cy="41.14" r="10.39"/><path class="search-illustraation-4" d="M46.38,37.08a5.75,5.75,0,0,1,8.12,0"/><line class="search-illustraation-4" x1="57.79" y1="48.49" x2="65.13" y2="55.83"/><path class="search-illustraation-5" d="M43.09,16.3v5.94H37.15V16.3h1a1.89,1.89,0,0,1,3.77,0Z"/><polyline class="search-illustraation-5" points="24.67 3.81 18.25 3.81 18.25 10.37"/><line class="search-illustraation-5" x1="18.25" y1="58.31" x2="18.25" y2="64.86"/><polyline class="search-illustraation-5" points="49.16 3.81 55.58 3.81 55.58 10.37"/><line class="search-illustraation-5" x1="55.58" y1="58.31" x2="55.58" y2="64.87"/></g></svg>