<svg xmlns="http://www.w3.org/2000/svg" viewBox="0 0 21.5 21.5"><defs><style>.cls-1{fill:none;stroke:#fff;stroke-linecap:round;stroke-miterlimit:10;stroke-width:1.5px;}.cls-2{fill:#fff;}</style></defs><title>Floor1</title><g id="სართული"><path class="cls-1" d="M10.75,19.92a.83.83,0,0,1-.83.83H1.59a.84.84,0,0,1-.84-.83V1.59A.85.85,0,0,1,1.59.75H9.92a.84.84,0,0,1,.83.84Z"/><rect class="cls-2" x="6.42" y="4.08" width="1.67" height="3.34" rx="0.83" ry="0.83"/><rect class="cls-2" x="3.42" y="4.08" width="1.67" height="3.34" rx="0.83" ry="0.83"/><rect class="cls-2" x="3.42" y="13.09" width="1.67" height="3.34" rx="0.83" ry="0.83"/><rect class="cls-2" x="6.42" y="13.09" width="1.67" height="3.34" rx="0.83" ry="0.83"/><circle class="cls-1" cx="15.75" cy="15.75" r="2.87"/><line class="cls-1" x1="15.75" y1="17.73" x2="15.75" y2="20.75"/><path class="cls-1" d="M20.75,5.75H11.61a.26.26,0,0,1-.14-.48l4.28-2.85"/><line class="cls-1" x1="10.75" y1="5.75" x2="15.75" y2="9.23"/></g></svg>