<svg xmlns="http://www.w3.org/2000/svg" viewBox="0 0 21.5 21.5"><defs>
<style>.furniture-1{fill:none;stroke-linecap:round;stroke-miterlimit:10;stroke-width:1.5px;}</style></defs><title>Furniture1</title><g id="ავეჯი"><rect class="furniture-1" x="0.75" y="7.42" width="3.34" height="10" rx="0.83" ry="0.83"/><rect class="furniture-1" x="17.42" y="7.42" width="3.33" height="10" rx="0.83" ry="0.83"/><rect class="furniture-1" x="4.09" y="17.42" width="3.33" height="3.33" rx="0.83" ry="0.83"/><rect class="furniture-1" x="14.08" y="17.42" width="3.34" height="3.33" rx="0.83" ry="0.83"/><rect class="furniture-1" x="17.42" y="7.42" width="3.33" height="10" rx="0.83" ry="0.83"/><rect class="furniture-1" x="0.75" y="7.42" width="3.34" height="10" rx="0.83" ry="0.83"/><path class="furniture-1" d="M19.09,6.58h0a.85.85,0,0,1-.84.84h0a.83.83,0,0,0-.83.83v8.34a.83.83,0,0,1-.84.83H4.92a.83.83,0,0,1-.83-.83V8.25a.84.84,0,0,0-.84-.83h0a.84.84,0,0,1-.83-.84h0A5.83,5.83,0,0,1,8.25.75h5A5.83,5.83,0,0,1,19.09,6.58Z"/><rect class="furniture-1" x="4.09" y="14.08" width="13.33" height="3.33" rx="0.83" ry="0.83"/></g></svg>