<svg xmlns="http://www.w3.org/2000/svg" viewBox="0 0 21.5 21.5"><defs><style>.cls-1{fill:none;stroke:#fff;stroke-linecap:round;stroke-miterlimit:10;stroke-width:1.5px;}</style></defs><title>Giving_option1</title><g id="ჩაბარება"><path class="cls-1" d="M14.08,2V6.88a1.3,1.3,0,0,1-.38.92L7.79,13.7a1.3,1.3,0,0,0-.38.92v4.84a1.29,1.29,0,0,1-1.29,1.29H2A1.29,1.29,0,0,1,.75,19.46V2A1.29,1.29,0,0,1,2,.75H12.79A1.29,1.29,0,0,1,14.08,2Z"/><path class="cls-1" d="M20.75,14.62v4.84a1.29,1.29,0,0,1-1.29,1.29H8.7a1.29,1.29,0,0,1-1.29-1.29V14.62a1.3,1.3,0,0,1,.38-.92l5.38-5.37a1.29,1.29,0,0,1,1.82,0l5.38,5.37A1.3,1.3,0,0,1,20.75,14.62Z"/><line class="cls-1" x1="3.41" y1="4.08" x2="11.41" y2="4.08"/><line class="cls-1" x1="3.41" y1="7.42" x2="11.41" y2="7.42"/><line class="cls-1" x1="3.41" y1="10.75" x2="9.75" y2="10.75"/><line class="cls-1" x1="3.41" y1="14.08" x2="6.41" y2="14.08"/></g></svg>