<svg xmlns="http://www.w3.org/2000/svg" viewBox="0 0 21.5 21.5"><defs><style>.cls-1{fill:none;stroke:#fff;stroke-linecap:round;stroke-miterlimit:10;stroke-width:1.5px;}</style></defs><title>Imigrent1</title><g id="ემიგრანტი"><path class="cls-1" d="M20.75,4.91v6.31a.91.91,0,0,1-.91.91H1.65a.9.9,0,0,1-.9-.9h0A3.81,3.81,0,0,1,4.56,7.42h11.1a.91.91,0,0,0,.64-.27l2.89-2.89A.91.91,0,0,1,20.75,4.91Z"/><path class="cls-1" d="M14.08,12.13v7.71a.91.91,0,0,1-.91.91H11.38a.92.92,0,0,1-.86-.58l-3.1-8Z"/><path class="cls-1" d="M14.08,7.42V1.66a.91.91,0,0,0-.91-.91H11.31a.92.92,0,0,0-.81.5L7.42,7.42Z"/><line class="cls-1" x1="14.08" y1="15.44" x2="17.75" y2="15.44"/><line class="cls-1" x1="14.08" y1="18.75" x2="19.75" y2="18.75"/><line class="cls-1" x1="14.08" y1="4.08" x2="15.92" y2="4.08"/></g></svg>