
<svg xmlns="http://www.w3.org/2000/svg" viewBox="0 0 21.5 21.5"><defs><style>.in-progress-1,.in-progress-2{fill:none;stroke:#fff;stroke-linecap:round;stroke-miterlimit:10;stroke-width:1.5px;}.in-progress-2{stroke-dasharray:3.28 3.28;}.in-progress-3{fill:#fff;}</style></defs><title>In_progress1</title><g id="მიმდინარე"><path class="in-progress-1" d="M3,.75H7.79a1,1,0,0,1,1,1v19a0,0,0,0,1,0,0H2.08a0,0,0,0,1,0,0v-19a1,1,0,0,1,1-1Z"/><polyline class="in-progress-1" points="19.42 19.25 19.42 20.75 17.92 20.75"/><polyline class="in-progress-1" points="14.25 20.75 12.75 20.75 12.75 19.25"/><path class="in-progress-2" d="M12.75,16V8.38a1,1,0,0,1,1-1h4.75a1,1,0,0,1,1,1v9.23"/><line class="in-progress-1" x1="0.75" y1="20.75" x2="20.75" y2="20.75"/><circle class="in-progress-3" cx="5.42" cy="10.75" r="0.63"/><circle class="in-progress-3" cx="5.42" cy="5.75" r="0.63"/><circle class="in-progress-3" cx="16.08" cy="16.08" r="0.63"/><circle class="in-progress-3" cx="16.08" cy="11.08" r="0.63"/><circle class="in-progress-3" cx="5.42" cy="15.75" r="0.63"/></g></svg>