<svg xmlns="http://www.w3.org/2000/svg" viewBox="0 0 39.16 90.07"><defs><style>.manager-cls-1{fill:#2d2435;}.manager-cls-2{fill:none;stroke:#fff;stroke-miterlimit:10;}.manager-cls-3{fill:#ebb168;}.manager-cls-4{fill:#fff;}.manager-cls-5{fill:#f7e5d0;}.manager-cls-6{fill:#e46d49;}</style></defs><title>Manager1</title><g id="მენეჯერი"><path class="manager-cls-1" d="M26.85,6.7C25,3,20.34,5.78,19.53,6c-.49.11-.92-1.15-1.06-1.27C18.09,4.39,16.94,5,17,6.19s.92.51.92.51a5,5,0,0,0,1.47,3.59,19.4,19.4,0,0,0-.42,4,23.67,23.67,0,0,0-2.95.92,17.4,17.4,0,0,1-.92-7.91C15.7-.08,21.71-.45,23.89.24a5.31,5.31,0,0,1,3.53,3.44C27.89,5.21,27.28,7.53,26.85,6.7Z"/><path class="manager-cls-2" d="M31.58,21.63l.41.55"/><path class="manager-cls-2" d="M15.41,25.37a11.87,11.87,0,0,0-.51,1.2"/><path class="manager-cls-2" d="M20.06,32.11l-.49-.29"/><path class="manager-cls-1" d="M18.77,34.43l-.61,2-.37,1.21L15.94,37l-9.2-3.14,3.07-9,.63.21a13.8,13.8,0,0,0-.63,2.59c-.07,1.39,3.92,5.18,7.13,6.33l.55.17A7.85,7.85,0,0,0,18.77,34.43Z"/><path class="manager-cls-2" d="M36,19.32c.17.32.3.54.3.54"/><path class="manager-cls-3" d="M36.29,22.24a48.51,48.51,0,0,1-4.72,5.17c-.35.13-2.8-2.37-4.37-4,0,0,.55,11.34.89,12.19.07.18-.31.34-1,.47a45.76,45.76,0,0,1-9,.36l.61-2c2.3.24,3.09-.94,3.12-1.85,0-.76-1.27-1.45-2-1.78h0l.73-2.35L14.9,26.57a2.73,2.73,0,0,0-.2,1c.05.4,2.42,2.32,3.87,3.46l-1.63,3c-3.21-1.15-7.2-4.94-7.13-6.33a13.8,13.8,0,0,1,.63-2.59c1-3.34,3.07-8.6,4.55-9.4.27-.14.61-.3,1-.46A23.67,23.67,0,0,1,19,14.32c.19.76,2.1,2,2.34,1.88a5.72,5.72,0,0,0,.92-2.42,5,5,0,0,1,2.86.42c1.58,1,5.27,5.8,6.51,7.43l1.33-1.35Z"/><path class="manager-cls-1" d="M27.2,23.39,25.87,22l1.72,7.23Z"/><path class="manager-cls-4" d="M36,19.32l-2.6.46L32,20l-1.71-9.46,6.27-.78,1.16,8a3.4,3.4,0,0,0-2.24-1C34.84,16.94,35.55,18.48,36,19.32Z"/><path class="manager-cls-5" d="M38.45,19c0,.42-1,1.76-2.16,3.25l-3.38-2,.48-.5,2.6-.46c-.44-.84-1.15-2.38-.52-2.49a3.4,3.4,0,0,1,2.24,1A1.9,1.9,0,0,1,38.45,19Z"/><line class="manager-cls-2" x1="31.58" y1="21.63" x2="30.55" y2="22.67"/><path class="manager-cls-5" d="M21.89,32.58c0,.91-.82,2.09-3.12,1.85a7.85,7.85,0,0,1-1.28-.24L16.94,34l1.63-3,1,.79.31-1C20.62,31.13,21.91,31.82,21.89,32.58Z"/><path class="manager-cls-1" d="M20.61,28.45l-.73,2.35h0l-.31,1-1-.79c-1.45-1.14-3.82-3.06-3.87-3.46a2.73,2.73,0,0,1,.2-1Z"/><path class="manager-cls-5" d="M26.85,6.7a4.67,4.67,0,0,1-4.47,4.85,17.21,17.21,0,0,0-.17,2.23,5.72,5.72,0,0,1-.92,2.42c-.24.16-2.15-1.12-2.34-1.88a19.4,19.4,0,0,1,.42-4A5,5,0,0,1,17.9,6.7S17,7.33,17,6.19s1.11-1.8,1.49-1.49c.14.12.57,1.38,1.06,1.27C20.34,5.78,25,3,26.85,6.7Z"/><line class="manager-cls-2" x1="39.16" y1="90.03" x2="33.06" y2="90.03"/><line class="manager-cls-2" x1="14.23" y1="90.03" x2="8.69" y2="90.03"/><path class="manager-cls-6" d="M32.7,60.14c0,1.33-2.48,21.9-3.09,26.87a2.58,2.58,0,0,0-3.07.41L27.46,62a4.79,4.79,0,0,0-.18-1.41L23.36,47,18.45,88.67c-.51-1.19-1.3-2.71-1.92-2.51s-1,1-1.47,1.93L15.94,37l1.85.63.37-1.21a45.76,45.76,0,0,0,9-.36C27.16,36.2,32.7,58.63,32.7,60.14Z"/><line class="manager-cls-2" x1="25.9" y1="90.03" x2="18.98" y2="90.03"/><polygon class="manager-cls-1" points="23.36 46.95 23.78 43.38 26.53 57.22 23.36 46.95"/><path class="manager-cls-4" d="M19,90H14.23s.35-1,.83-1.94,1-1.78,1.47-1.93,1.41,1.32,1.92,2.51h0C18.77,89.41,19,90,19,90Z"/><path class="manager-cls-4" d="M33.06,90H25.9s.07-2,.64-2.61A2.58,2.58,0,0,1,29.61,87a3.62,3.62,0,0,1,.61.41C31.85,88.77,33.2,89,33.06,90Z"/><line class="manager-cls-2" x1="14.7" y1="27.57" x2="15.41" y2="23.74"/><path class="manager-cls-2" d="M23.88,90S22.93,76.7,7.29,66.88"/><path class="manager-cls-2" d="M23.2,86.68S21.3,85,20.41,84.94"/><path class="manager-cls-2" d="M21.8,82.9a14.32,14.32,0,0,1,.64-4.45"/><path class="manager-cls-2" d="M14.34,71.74a.91.91,0,0,1-.63.72,12.61,12.61,0,0,1-3.32.62h0L9.61,72A.93.93,0,0,0,8,72.1v0a.92.92,0,0,1-1.14.48,7.69,7.69,0,0,1-2.64-1.53.92.92,0,0,1-.07-1.31h0a.92.92,0,0,0-.27-1.44l-2-1a1,1,0,0,1-.45-.49,19.66,19.66,0,0,1-.91-3.37.93.93,0,0,1,.93-1.08c.67,0,1.59.06,2.64.18a1,1,0,0,1,.69.44l.59,1a.91.91,0,0,0,1.55,0l.16-.24a.93.93,0,0,1,1-.38,14.34,14.34,0,0,1,2.4,1,.92.92,0,0,1,.49.82v1.35a.92.92,0,0,0,.92.92h1.27a.93.93,0,0,1,.87.6A7.17,7.17,0,0,1,14.34,71.74Z"/></g></svg>