<svg xmlns="http://www.w3.org/2000/svg" viewBox="0 0 21.5 21.5"><defs><style>.cls-1{fill:none;stroke:#fff;stroke-linecap:round;stroke-miterlimit:10;stroke-width:1.5px;}</style></defs><title>Parents1</title><g id="მშობლისთვის"><path class="cls-1" d="M9.68,20.75H1.82A1.07,1.07,0,0,1,.75,19.68V11.32a1.08,1.08,0,0,1,.48-.89L5.16,7.81a1.06,1.06,0,0,1,1.18,0l3.93,2.62a1.08,1.08,0,0,1,.48.89v8.36A1.07,1.07,0,0,1,9.68,20.75Z"/><circle class="cls-1" cx="5.75" cy="4.08" r="3.33"/><path class="cls-1" d="M19.68,20.75H11.82a1.07,1.07,0,0,1-1.07-1.07v-5a1.05,1.05,0,0,1,.48-.89h0a8.13,8.13,0,0,1,9,0h0a1.05,1.05,0,0,1,.48.89v5A1.07,1.07,0,0,1,19.68,20.75Z"/><path class="cls-1" d="M12.42,7.42a3.33,3.33,0,1,1,6.66,0c0,1.84-1.49,0-3.33,0S12.42,9.26,12.42,7.42Z"/><path class="cls-1" d="M2.42,9.64l2.47,3.3a1.08,1.08,0,0,0,1.72,0l2.47-3.3"/><line class="cls-1" x1="12.42" y1="7.42" x2="12.42" y2="12.97"/><line class="cls-1" x1="19.08" y1="7.42" x2="19.08" y2="12.97"/></g></svg>