
<svg xmlns="http://www.w3.org/2000/svg" viewBox="0 0 21.5 21.5"><defs><style>.planned-1,.planned-2,.planned-3{fill:none;stroke-linecap:round;stroke-miterlimit:10;stroke-width:1.5px;}.planned-1{stroke-dasharray:3;}.planned-3{stroke-dasharray:3.28 3.28;}.planned-4{fill:#fff;}</style></defs><title>Planed1</title><g id="დაგეგმილი"><path class="planned-1" d="M3,.75H7.79a1,1,0,0,1,1,1v19a0,0,0,0,1,0,0H2.08a0,0,0,0,1,0,0v-19a1,1,0,0,1,1-1Z"/><polyline class="planned-2" points="19.42 19.25 19.42 20.75 17.92 20.75"/><polyline class="planned-2" points="14.25 20.75 12.75 20.75 12.75 19.25"/><path class="planned-3" d="M12.75,16V8.38a1,1,0,0,1,1-1h4.75a1,1,0,0,1,1,1v9.23"/><line class="planned-2" x1="0.75" y1="20.75" x2="20.75" y2="20.75"/><circle class="planned-4" cx="5.42" cy="10.75" r="0.63"/><circle class="planned-4" cx="5.42" cy="5.75" r="0.63"/><circle class="planned-4" cx="16.08" cy="16.08" r="0.63"/><circle class="planned-4" cx="16.08" cy="11.08" r="0.63"/><circle class="planned-4" cx="5.42" cy="15.75" r="0.63"/></g></svg>