<svg xmlns="http://www.w3.org/2000/svg" viewBox="0 0 21.5 21.5"><defs><style>.cls-1{fill:none;stroke:#fff;stroke-linecap:round;stroke-miterlimit:10;stroke-width:1.5px;}.cls-2{fill:#fff;}</style></defs><title>Project1</title><g id="პროექტი"><path class="cls-1" d="M20.75,8.75V19.41a1.34,1.34,0,0,1-1.33,1.34H2.08A1.34,1.34,0,0,1,.75,19.41V8.75A1.33,1.33,0,0,1,2.08,7.42H5.65a1.3,1.3,0,0,1,1.16.69,4.86,4.86,0,0,0,.87,1.18l2.59,2.59a1.33,1.33,0,0,0,1.88,0l2.6-2.59a5,5,0,0,0,.88-1.18,1.3,1.3,0,0,1,1.16-.69h2.63A1.33,1.33,0,0,1,20.75,8.75Z"/><rect class="cls-1" x="7.42" y="14.08" width="6.67" height="6.67" rx="1.33" ry="1.33"/><rect class="cls-1" x="0.75" y="14.08" width="6.67" height="6.67" rx="1.33" ry="1.33"/><path class="cls-1" d="M14.75,2.22a5,5,0,0,0-8.24,5.2A4.83,4.83,0,0,0,7.68,9.29l2.59,2.59a1.33,1.33,0,0,0,1.88,0l2.6-2.59a4.83,4.83,0,0,0,1.18-1.87A5,5,0,0,0,14.75,2.22Z"/><path class="cls-2" d="M12.44,5.75a1.23,1.23,0,1,1-1.23-1.22A1.23,1.23,0,0,1,12.44,5.75Z"/></g></svg>