<svg xmlns="http://www.w3.org/2000/svg" viewBox="0 0 21.5 21.5"><defs><style>.remove-favourite-svg{fill:none;stroke-linecap:round;stroke-miterlimit:10;stroke-width:1.5px;}</style></defs><title>Remove_Favourite</title><g id="ფავორიტიდან_წაშლა" data-name="ფავორიტიდან წაშლა"><path class="remove-favourite-svg" d="M14.18,11.72v8.61a.42.42,0,0,1-.71.3L10,17.15a.42.42,0,0,0-.59,0L5.94,20.63a.42.42,0,0,1-.71-.3V7.21H9.78A5.52,5.52,0,0,0,14.18,11.72Z"/><path class="remove-favourite-svg" d="M5.23,7.21h0a0,0,0,0,1,0,0v9.56a0,0,0,0,1,0,0H1.37a.62.62,0,0,1-.62-.62V11.69A4.48,4.48,0,0,1,5.23,7.21Z"/><line class="remove-favourite-svg" x1="12.52" y1="3.48" x2="17.91" y2="8.91"/><line class="remove-favourite-svg" x1="17.99" y1="3.5" x2="12.62" y2="8.91"/><path class="remove-favourite-svg" d="M20.75,6.28a5.53,5.53,0,0,1-5.52,5.54,5.19,5.19,0,0,1-1.05-.1,5.52,5.52,0,0,1-4.4-4.51,5.64,5.64,0,0,1-.08-.93,5.53,5.53,0,1,1,11.05,0Z"/></g></svg>