<svg xmlns="http://www.w3.org/2000/svg" viewBox="0 0 16.67 18.5"><defs><style>.cls-1,.cls-3{fill:none;stroke:#fff;stroke-linecap:round;stroke-width:1.5px;}.cls-1{stroke-linejoin:round;}.cls-2{fill:#fff;}.cls-3{stroke-miterlimit:10;}</style></defs><title>Room_Search1</title><g id="ბინის_ნომრით_ძებნა" data-name="ბინის ნომრით ძებნა"><path class="cls-1" d="M10.08,10.08a2.83,2.83,0,0,0,2,4.83v2.84H.75V.75H12.09v8.5A2.81,2.81,0,0,0,10.08,10.08Z"/><path class="cls-1" d="M10.08,10.08a2.83,2.83,0,0,0,2,4.83v2.84H4.53V.75h7.56v8.5A2.81,2.81,0,0,0,10.08,10.08Z"/><circle class="cls-2" cx="6.42" cy="11.05" r="0.77"/><path class="cls-3" d="M14.09,14.08a2.84,2.84,0,0,1-4,0,2.83,2.83,0,0,1,2-4.83,2.83,2.83,0,0,1,2,4.83Z"/><line class="cls-3" x1="14.09" y1="14.09" x2="15.92" y2="15.99"/></g></svg>