<svg xmlns="http://www.w3.org/2000/svg" viewBox="0 0 21.72 21.5"><defs><style>.technic-1{fill:none;stroke-linecap:round;stroke-miterlimit:10;stroke-width:1.5px;}</style></defs><title>Technick1</title><g id="ტექნიკა"><path class="technic-1" d="M.75,4.08H21a0,0,0,0,1,0,0v15.2a1.46,1.46,0,0,1-1.46,1.46H2.21A1.46,1.46,0,0,1,.75,19.29V4.08A0,0,0,0,1,.75,4.08Z"/><path class="technic-1" d="M2.21.75H19.5A1.46,1.46,0,0,1,21,2.21V4.08a0,0,0,0,1,0,0H.75a0,0,0,0,1,0,0V2.21A1.46,1.46,0,0,1,2.21.75Z"/><circle class="technic-1" cx="10.97" cy="11.72" r="4.31"/><line class="technic-1" x1="13.2" y1="11.72" x2="17.51" y2="11.72"/></g></svg>